<svg xmlns="http://www.w3.org/2000/svg" width="860" height="734" viewBox="0 0 860 734">
<style>
.bg { fill: #0d1117; }
.title { fill: #c9d1d9; font: 700 26px -apple-system,BlinkMacSystemFont,Segoe UI,Helvetica,Arial,sans-serif; }
.meta { fill: #8b949e; font: 500 14px -apple-system,BlinkMacSystemFont,Segoe UI,Helvetica,Arial,sans-serif; }
.label { fill: #c9d1d9; font: 600 16px -apple-system,BlinkMacSystemFont,Segoe UI,Helvetica,Arial,sans-serif; }
.value { fill: #58a6ff; font: 700 24px -apple-system,BlinkMacSystemFont,Segoe UI,Helvetica,Arial,sans-serif; }
.lang { fill: #c9d1d9; font: 500 14px -apple-system,BlinkMacSystemFont,Segoe UI,Helvetica,Arial,sans-serif; }
.barBg { fill: #21262d; rx: 6; }
.barFillAll { fill: #238636; rx: 6; }
.barFillRecent { fill: #1f6feb; rx: 6; }
</style>
<rect class="bg" x="0" y="0" width="860" height="734" rx="12" />
<text class="title" x="24" y="42">AldenBraverman | Verified GitHub Stats</text>
<text class="meta" x="24" y="66">Computed by GitHub Actions from GitHub API (includes private repos with token access)</text>
<text class="label" x="24" y="102">Stars earned (on owned repos)</text>
<text class="value" x="24" y="132">11</text>
<text class="label" x="320" y="102">Owned repos scanned</text>
<text class="value" x="320" y="132">65 / 70</text>
<text class="meta" x="24" y="166">Recent window: last 180 days (21 repos pushed)</text>
<text class="label" x="24" y="188">Top languages (last 180 days, by bytes in recently pushed repos)</text>
<text class="lang" x="24" y="229">C++ (47.15%)</text>
<rect class="barBg" x="290" y="214" width="560" height="16" />
<rect class="barFillRecent" x="290" y="214" width="264" height="16" />
<text class="lang" x="24" y="259">JavaScript (18.02%)</text>
<rect class="barBg" x="290" y="244" width="560" height="16" />
<rect class="barFillRecent" x="290" y="244" width="100" height="16" />
<text class="lang" x="24" y="289">Python (13.03%)</text>
<rect class="barBg" x="290" y="274" width="560" height="16" />
<rect class="barFillRecent" x="290" y="274" width="72" height="16" />
<text class="lang" x="24" y="319">TypeScript (8.85%)</text>
<rect class="barBg" x="290" y="304" width="560" height="16" />
<rect class="barFillRecent" x="290" y="304" width="49" height="16" />
<text class="lang" x="24" y="349">Swift (6.08%)</text>
<rect class="barBg" x="290" y="334" width="560" height="16" />
<rect class="barFillRecent" x="290" y="334" width="34" height="16" />
<text class="lang" x="24" y="379">CMake (2.35%)</text>
<rect class="barBg" x="290" y="364" width="560" height="16" />
<rect class="barFillRecent" x="290" y="364" width="13" height="16" />
<text class="lang" x="24" y="409">Shell (1.34%)</text>
<rect class="barBg" x="290" y="394" width="560" height="16" />
<rect class="barFillRecent" x="290" y="394" width="7" height="16" />
<text class="lang" x="24" y="439">CSS (1.22%)</text>
<rect class="barBg" x="290" y="424" width="560" height="16" />
<rect class="barFillRecent" x="290" y="424" width="6" height="16" />
<text class="label" x="24" y="468">Top languages (all-time, by bytes)</text>
<text class="lang" x="24" y="509">C# (38.25%)</text>
<rect class="barBg" x="290" y="494" width="560" height="16" />
<rect class="barFillAll" x="290" y="494" width="214" height="16" />
<text class="lang" x="24" y="539">JavaScript (31.03%)</text>
<rect class="barBg" x="290" y="524" width="560" height="16" />
<rect class="barFillAll" x="290" y="524" width="173" height="16" />
<text class="lang" x="24" y="569">C++ (12.04%)</text>
<rect class="barBg" x="290" y="554" width="560" height="16" />
<rect class="barFillAll" x="290" y="554" width="67" height="16" />
<text class="lang" x="24" y="599">C (4.51%)</text>
<rect class="barBg" x="290" y="584" width="560" height="16" />
<rect class="barFillAll" x="290" y="584" width="25" height="16" />
<text class="lang" x="24" y="629">CMake (3.39%)</text>
<rect class="barBg" x="290" y="614" width="560" height="16" />
<rect class="barFillAll" x="290" y="614" width="18" height="16" />
<text class="lang" x="24" y="659">Python (3.25%)</text>
<rect class="barBg" x="290" y="644" width="560" height="16" />
<rect class="barFillAll" x="290" y="644" width="18" height="16" />
<text class="lang" x="24" y="689">TypeScript (1.89%)</text>
<rect class="barBg" x="290" y="674" width="560" height="16" />
<rect class="barFillAll" x="290" y="674" width="10" height="16" />
<text class="lang" x="24" y="719">Shell (1.41%)</text>
<rect class="barBg" x="290" y="704" width="560" height="16" />
<rect class="barFillAll" x="290" y="704" width="7" height="16" />
</svg>