<svg xmlns="http://www.w3.org/2000/svg" width="860" height="734" viewBox="0 0 860 734">
<style>
.bg { fill: #0d1117; }
.title { fill: #c9d1d9; font: 700 26px -apple-system,BlinkMacSystemFont,Segoe UI,Helvetica,Arial,sans-serif; }
.meta { fill: #8b949e; font: 500 14px -apple-system,BlinkMacSystemFont,Segoe UI,Helvetica,Arial,sans-serif; }
.label { fill: #c9d1d9; font: 600 16px -apple-system,BlinkMacSystemFont,Segoe UI,Helvetica,Arial,sans-serif; }
.value { fill: #58a6ff; font: 700 24px -apple-system,BlinkMacSystemFont,Segoe UI,Helvetica,Arial,sans-serif; }
.lang { fill: #c9d1d9; font: 500 14px -apple-system,BlinkMacSystemFont,Segoe UI,Helvetica,Arial,sans-serif; }
.barBg { fill: #21262d; rx: 6; }
.barFillAll { fill: #238636; rx: 6; }
.barFillRecent { fill: #1f6feb; rx: 6; }
</style>
<rect class="bg" x="0" y="0" width="860" height="734" rx="12" />
<text class="title" x="24" y="42">AldenBraverman | Verified GitHub Stats</text>
<text class="meta" x="24" y="66">Computed by GitHub Actions from GitHub API (includes private repos with token access)</text>
<text class="label" x="24" y="102">Stars earned (on owned repos)</text>
<text class="value" x="24" y="132">11</text>
<text class="label" x="320" y="102">Owned repos scanned</text>
<text class="value" x="320" y="132">64 / 69</text>
<text class="meta" x="24" y="166">Recent window: last 180 days (20 repos pushed)</text>
<text class="label" x="24" y="188">Top languages (all-time, by bytes)</text>
<text class="lang" x="24" y="229">C# (38.72%)</text>
<rect class="barBg" x="290" y="214" width="560" height="16" />
<rect class="barFillAll" x="290" y="214" width="216" height="16" />
<text class="lang" x="24" y="259">JavaScript (31.20%)</text>
<rect class="barBg" x="290" y="244" width="560" height="16" />
<rect class="barFillAll" x="290" y="244" width="174" height="16" />
<text class="lang" x="24" y="289">C++ (11.58%)</text>
<rect class="barBg" x="290" y="274" width="560" height="16" />
<rect class="barFillAll" x="290" y="274" width="64" height="16" />
<text class="lang" x="24" y="319">C (4.57%)</text>
<rect class="barBg" x="290" y="304" width="560" height="16" />
<rect class="barFillAll" x="290" y="304" width="25" height="16" />
<text class="lang" x="24" y="349">CMake (3.40%)</text>
<rect class="barBg" x="290" y="334" width="560" height="16" />
<rect class="barFillAll" x="290" y="334" width="19" height="16" />
<text class="lang" x="24" y="379">Python (2.93%)</text>
<rect class="barBg" x="290" y="364" width="560" height="16" />
<rect class="barFillAll" x="290" y="364" width="16" height="16" />
<text class="lang" x="24" y="409">TypeScript (1.90%)</text>
<rect class="barBg" x="290" y="394" width="560" height="16" />
<rect class="barFillAll" x="290" y="394" width="10" height="16" />
<text class="lang" x="24" y="439">Shell (1.41%)</text>
<rect class="barBg" x="290" y="424" width="560" height="16" />
<rect class="barFillAll" x="290" y="424" width="7" height="16" />
<text class="label" x="24" y="454">Top languages (last 180 days, by bytes in recently pushed repos)</text>
<text class="lang" x="24" y="495">C++ (46.94%)</text>
<rect class="barBg" x="290" y="480" width="560" height="16" />
<rect class="barFillRecent" x="290" y="480" width="262" height="16" />
<text class="lang" x="24" y="525">JavaScript (18.16%)</text>
<rect class="barBg" x="290" y="510" width="560" height="16" />
<rect class="barFillRecent" x="290" y="510" width="101" height="16" />
<text class="lang" x="24" y="555">Python (11.20%)</text>
<rect class="barBg" x="290" y="540" width="560" height="16" />
<rect class="barFillRecent" x="290" y="540" width="62" height="16" />
<text class="lang" x="24" y="585">TypeScript (9.81%)</text>
<rect class="barBg" x="290" y="570" width="560" height="16" />
<rect class="barFillRecent" x="290" y="570" width="54" height="16" />
<text class="lang" x="24" y="615">Swift (6.79%)</text>
<rect class="barBg" x="290" y="600" width="560" height="16" />
<rect class="barFillRecent" x="290" y="600" width="38" height="16" />
<text class="lang" x="24" y="645">CMake (2.28%)</text>
<rect class="barBg" x="290" y="630" width="560" height="16" />
<rect class="barFillRecent" x="290" y="630" width="12" height="16" />
<text class="lang" x="24" y="675">Shell (1.36%)</text>
<rect class="barBg" x="290" y="660" width="560" height="16" />
<rect class="barFillRecent" x="290" y="660" width="7" height="16" />
<text class="lang" x="24" y="705">CSS (1.26%)</text>
<rect class="barBg" x="290" y="690" width="560" height="16" />
<rect class="barFillRecent" x="290" y="690" width="7" height="16" />
</svg>