<svg xmlns="http://www.w3.org/2000/svg" width="860" height="460" viewBox="0 0 860 460">
<style>
.bg { fill: #0d1117; }
.title { fill: #c9d1d9; font: 700 26px -apple-system,BlinkMacSystemFont,Segoe UI,Helvetica,Arial,sans-serif; }
.meta { fill: #8b949e; font: 500 14px -apple-system,BlinkMacSystemFont,Segoe UI,Helvetica,Arial,sans-serif; }
.label { fill: #c9d1d9; font: 600 16px -apple-system,BlinkMacSystemFont,Segoe UI,Helvetica,Arial,sans-serif; }
.value { fill: #58a6ff; font: 700 24px -apple-system,BlinkMacSystemFont,Segoe UI,Helvetica,Arial,sans-serif; }
.lang { fill: #c9d1d9; font: 500 14px -apple-system,BlinkMacSystemFont,Segoe UI,Helvetica,Arial,sans-serif; }
.barBg { fill: #21262d; rx: 6; }
.barFill { fill: #238636; rx: 6; }
</style>
<rect class="bg" x="0" y="0" width="860" height="460" rx="12" />
<text class="title" x="24" y="42">AldenBraverman | Verified GitHub Stats</text>
<text class="meta" x="24" y="66">Computed by GitHub Actions from GitHub API (includes private repos with token access)</text>
<text class="label" x="24" y="102">Stars earned (on owned repos)</text>
<text class="value" x="24" y="132">11</text>
<text class="label" x="320" y="102">Owned repos scanned</text>
<text class="value" x="320" y="132">64 / 69</text>
<text class="label" x="24" y="174">Top languages by bytes</text>
<text class="lang" x="24" y="215">C# (38.72%)</text>
<rect class="barBg" x="240" y="200" width="560" height="16" />
<rect class="barFill" x="240" y="200" width="216" height="16" />
<text class="lang" x="24" y="245">JavaScript (31.20%)</text>
<rect class="barBg" x="240" y="230" width="560" height="16" />
<rect class="barFill" x="240" y="230" width="174" height="16" />
<text class="lang" x="24" y="275">C++ (11.58%)</text>
<rect class="barBg" x="240" y="260" width="560" height="16" />
<rect class="barFill" x="240" y="260" width="64" height="16" />
<text class="lang" x="24" y="305">C (4.57%)</text>
<rect class="barBg" x="240" y="290" width="560" height="16" />
<rect class="barFill" x="240" y="290" width="25" height="16" />
<text class="lang" x="24" y="335">CMake (3.40%)</text>
<rect class="barBg" x="240" y="320" width="560" height="16" />
<rect class="barFill" x="240" y="320" width="19" height="16" />
<text class="lang" x="24" y="365">Python (2.93%)</text>
<rect class="barBg" x="240" y="350" width="560" height="16" />
<rect class="barFill" x="240" y="350" width="16" height="16" />
<text class="lang" x="24" y="395">TypeScript (1.90%)</text>
<rect class="barBg" x="240" y="380" width="560" height="16" />
<rect class="barFill" x="240" y="380" width="10" height="16" />
<text class="lang" x="24" y="425">Shell (1.41%)</text>
<rect class="barBg" x="240" y="410" width="560" height="16" />
<rect class="barFill" x="240" y="410" width="7" height="16" />
</svg>